<mxfile host="Electron" modified="2024-06-21T17:26:45.566Z" agent="Mozilla/5.0 (Windows NT 10.0; Win64; x64) AppleWebKit/537.36 (KHTML, like Gecko) draw.io/24.5.1 Chrome/124.0.6367.207 Electron/30.0.6 Safari/537.36" etag="ISi076v07pxOAHzALdHb" version="24.5.1" type="device">
  <diagram id="C5RBs43oDa-KdzZeNtuy" name="Page-1">
    <mxGraphModel dx="2084" dy="1929" grid="1" gridSize="10" guides="1" tooltips="1" connect="1" arrows="1" fold="1" page="1" pageScale="1" pageWidth="827" pageHeight="1169" math="0" shadow="0">
      <root>
        <mxCell id="WIyWlLk6GJQsqaUBKTNV-0" />
        <mxCell id="WIyWlLk6GJQsqaUBKTNV-1" parent="WIyWlLk6GJQsqaUBKTNV-0" />
        <mxCell id="5gTBwtsTnotaRm7r4maJ-2" value="" style="edgeStyle=orthogonalEdgeStyle;rounded=0;orthogonalLoop=1;jettySize=auto;html=1;" parent="WIyWlLk6GJQsqaUBKTNV-1" source="5gTBwtsTnotaRm7r4maJ-0" target="5gTBwtsTnotaRm7r4maJ-1" edge="1">
          <mxGeometry relative="1" as="geometry" />
        </mxCell>
        <mxCell id="5gTBwtsTnotaRm7r4maJ-0" value="&lt;font style=&quot;font-size: 30px;&quot;&gt;Start&lt;/font&gt;" style="strokeWidth=2;html=1;shape=mxgraph.flowchart.start_1;whiteSpace=wrap;" parent="WIyWlLk6GJQsqaUBKTNV-1" vertex="1">
          <mxGeometry x="156.25" y="-220" width="90" height="90" as="geometry" />
        </mxCell>
        <mxCell id="5gTBwtsTnotaRm7r4maJ-4" value="" style="edgeStyle=orthogonalEdgeStyle;rounded=0;orthogonalLoop=1;jettySize=auto;html=1;" parent="WIyWlLk6GJQsqaUBKTNV-1" source="5gTBwtsTnotaRm7r4maJ-1" target="5gTBwtsTnotaRm7r4maJ-3" edge="1">
          <mxGeometry relative="1" as="geometry" />
        </mxCell>
        <mxCell id="5gTBwtsTnotaRm7r4maJ-1" value="&lt;font style=&quot;font-size: 30px;&quot;&gt;get &#39;username&#39; and &#39;password&#39;&lt;/font&gt;" style="whiteSpace=wrap;html=1;strokeWidth=2;" parent="WIyWlLk6GJQsqaUBKTNV-1" vertex="1">
          <mxGeometry x="55" y="-20" width="295" height="70" as="geometry" />
        </mxCell>
        <mxCell id="5gTBwtsTnotaRm7r4maJ-6" value="" style="edgeStyle=orthogonalEdgeStyle;rounded=0;orthogonalLoop=1;jettySize=auto;html=1;" parent="WIyWlLk6GJQsqaUBKTNV-1" source="5gTBwtsTnotaRm7r4maJ-3" target="5gTBwtsTnotaRm7r4maJ-5" edge="1">
          <mxGeometry relative="1" as="geometry" />
        </mxCell>
        <mxCell id="5gTBwtsTnotaRm7r4maJ-34" value="" style="edgeStyle=orthogonalEdgeStyle;rounded=0;orthogonalLoop=1;jettySize=auto;html=1;" parent="WIyWlLk6GJQsqaUBKTNV-1" source="5gTBwtsTnotaRm7r4maJ-3" target="5gTBwtsTnotaRm7r4maJ-33" edge="1">
          <mxGeometry relative="1" as="geometry" />
        </mxCell>
        <mxCell id="5gTBwtsTnotaRm7r4maJ-3" value="&lt;font style=&quot;font-size: 30px;&quot;&gt;Connect to the database &lt;code&gt;store.db&lt;/code&gt;&lt;/font&gt;" style="whiteSpace=wrap;html=1;strokeWidth=2;" parent="WIyWlLk6GJQsqaUBKTNV-1" vertex="1">
          <mxGeometry x="58.75" y="150" width="285" height="70" as="geometry" />
        </mxCell>
        <mxCell id="5gTBwtsTnotaRm7r4maJ-10" value="" style="edgeStyle=orthogonalEdgeStyle;rounded=0;orthogonalLoop=1;jettySize=auto;html=1;" parent="WIyWlLk6GJQsqaUBKTNV-1" source="5gTBwtsTnotaRm7r4maJ-5" target="5gTBwtsTnotaRm7r4maJ-9" edge="1">
          <mxGeometry relative="1" as="geometry" />
        </mxCell>
        <mxCell id="5gTBwtsTnotaRm7r4maJ-5" value="&lt;font style=&quot;font-size: 30px;&quot;&gt;Execute query to find &lt;code&gt;user_data&lt;/code&gt; in &lt;code&gt;employee&lt;/code&gt;&lt;/font&gt;" style="whiteSpace=wrap;html=1;strokeWidth=2;" parent="WIyWlLk6GJQsqaUBKTNV-1" vertex="1">
          <mxGeometry x="45" y="270" width="307.5" height="120" as="geometry" />
        </mxCell>
        <mxCell id="5gTBwtsTnotaRm7r4maJ-12" value="" style="edgeStyle=orthogonalEdgeStyle;rounded=0;orthogonalLoop=1;jettySize=auto;html=1;" parent="WIyWlLk6GJQsqaUBKTNV-1" source="5gTBwtsTnotaRm7r4maJ-9" target="5gTBwtsTnotaRm7r4maJ-11" edge="1">
          <mxGeometry relative="1" as="geometry" />
        </mxCell>
        <mxCell id="T8Z1pqLpK_Mi19yQJQGO-1" value="" style="edgeStyle=orthogonalEdgeStyle;rounded=0;orthogonalLoop=1;jettySize=auto;html=1;" edge="1" parent="WIyWlLk6GJQsqaUBKTNV-1" source="5gTBwtsTnotaRm7r4maJ-9" target="5gTBwtsTnotaRm7r4maJ-17">
          <mxGeometry relative="1" as="geometry" />
        </mxCell>
        <mxCell id="5gTBwtsTnotaRm7r4maJ-9" value="&lt;strong style=&quot;font-size: 30px;&quot;&gt;Does &lt;code&gt;user_data&lt;/code&gt; exist?&lt;/strong&gt;" style="rhombus;whiteSpace=wrap;html=1;strokeWidth=2;" parent="WIyWlLk6GJQsqaUBKTNV-1" vertex="1">
          <mxGeometry x="82.5" y="490" width="237.5" height="150" as="geometry" />
        </mxCell>
        <mxCell id="5gTBwtsTnotaRm7r4maJ-14" value="" style="edgeStyle=orthogonalEdgeStyle;rounded=0;orthogonalLoop=1;jettySize=auto;html=1;" parent="WIyWlLk6GJQsqaUBKTNV-1" source="5gTBwtsTnotaRm7r4maJ-11" target="5gTBwtsTnotaRm7r4maJ-13" edge="1">
          <mxGeometry relative="1" as="geometry" />
        </mxCell>
        <mxCell id="5gTBwtsTnotaRm7r4maJ-11" value="&lt;font style=&quot;font-size: 30px;&quot;&gt;&lt;strong&gt;Show error message &quot;Incorrect account&quot;&lt;/strong&gt;&lt;/font&gt;" style="shape=parallelogram;perimeter=parallelogramPerimeter;whiteSpace=wrap;html=1;fixedSize=1;strokeWidth=2;" parent="WIyWlLk6GJQsqaUBKTNV-1" vertex="1">
          <mxGeometry x="390" y="517.5" width="370" height="95" as="geometry" />
        </mxCell>
        <mxCell id="5gTBwtsTnotaRm7r4maJ-13" value="&lt;font style=&quot;font-size: 30px;&quot;&gt;Clear password field&lt;/font&gt;" style="whiteSpace=wrap;html=1;strokeWidth=2;" parent="WIyWlLk6GJQsqaUBKTNV-1" vertex="1">
          <mxGeometry x="860" y="522.5" width="240" height="85" as="geometry" />
        </mxCell>
        <mxCell id="5gTBwtsTnotaRm7r4maJ-15" value="End" style="ellipse;whiteSpace=wrap;html=1;strokeWidth=2;fontSize=30;" parent="WIyWlLk6GJQsqaUBKTNV-1" vertex="1">
          <mxGeometry x="900" y="2510" width="80" height="80" as="geometry" />
        </mxCell>
        <mxCell id="5gTBwtsTnotaRm7r4maJ-20" value="" style="edgeStyle=orthogonalEdgeStyle;rounded=0;orthogonalLoop=1;jettySize=auto;html=1;" parent="WIyWlLk6GJQsqaUBKTNV-1" source="5gTBwtsTnotaRm7r4maJ-17" target="5gTBwtsTnotaRm7r4maJ-19" edge="1">
          <mxGeometry relative="1" as="geometry" />
        </mxCell>
        <mxCell id="5gTBwtsTnotaRm7r4maJ-17" value="&lt;font style=&quot;font-size: 30px;&quot;&gt;&lt;strong&gt;Yes&lt;/strong&gt;: &lt;strong&gt;Continue&lt;/strong&gt;&lt;/font&gt;" style="whiteSpace=wrap;html=1;strokeWidth=2;" parent="WIyWlLk6GJQsqaUBKTNV-1" vertex="1">
          <mxGeometry x="97.5" y="740" width="215" height="60" as="geometry" />
        </mxCell>
        <mxCell id="5gTBwtsTnotaRm7r4maJ-22" value="" style="edgeStyle=orthogonalEdgeStyle;rounded=0;orthogonalLoop=1;jettySize=auto;html=1;" parent="WIyWlLk6GJQsqaUBKTNV-1" source="5gTBwtsTnotaRm7r4maJ-19" target="5gTBwtsTnotaRm7r4maJ-21" edge="1">
          <mxGeometry relative="1" as="geometry" />
        </mxCell>
        <mxCell id="5gTBwtsTnotaRm7r4maJ-19" value="&lt;font style=&quot;font-size: 30px;&quot;&gt;Get &lt;code&gt;stored_password_hash&lt;/code&gt;&lt;/font&gt;" style="whiteSpace=wrap;html=1;strokeWidth=2;" parent="WIyWlLk6GJQsqaUBKTNV-1" vertex="1">
          <mxGeometry x="26.25" y="870" width="357.5" height="105" as="geometry" />
        </mxCell>
        <mxCell id="5gTBwtsTnotaRm7r4maJ-24" value="" style="edgeStyle=orthogonalEdgeStyle;rounded=0;orthogonalLoop=1;jettySize=auto;html=1;" parent="WIyWlLk6GJQsqaUBKTNV-1" source="5gTBwtsTnotaRm7r4maJ-21" target="5gTBwtsTnotaRm7r4maJ-23" edge="1">
          <mxGeometry relative="1" as="geometry" />
        </mxCell>
        <mxCell id="5gTBwtsTnotaRm7r4maJ-21" value="&lt;strong&gt;&lt;font style=&quot;font-size: 30px;&quot;&gt;Verify password&lt;/font&gt;&lt;/strong&gt;" style="whiteSpace=wrap;html=1;strokeWidth=2;" parent="WIyWlLk6GJQsqaUBKTNV-1" vertex="1">
          <mxGeometry x="62.5" y="1050" width="285" height="60" as="geometry" />
        </mxCell>
        <mxCell id="5gTBwtsTnotaRm7r4maJ-26" value="" style="edgeStyle=orthogonalEdgeStyle;rounded=0;orthogonalLoop=1;jettySize=auto;html=1;fontSize=30;" parent="WIyWlLk6GJQsqaUBKTNV-1" source="5gTBwtsTnotaRm7r4maJ-23" target="5gTBwtsTnotaRm7r4maJ-25" edge="1">
          <mxGeometry relative="1" as="geometry" />
        </mxCell>
        <mxCell id="5gTBwtsTnotaRm7r4maJ-32" value="" style="edgeStyle=orthogonalEdgeStyle;rounded=0;orthogonalLoop=1;jettySize=auto;html=1;fontSize=30;" parent="WIyWlLk6GJQsqaUBKTNV-1" source="5gTBwtsTnotaRm7r4maJ-23" target="5gTBwtsTnotaRm7r4maJ-31" edge="1">
          <mxGeometry relative="1" as="geometry" />
        </mxCell>
        <mxCell id="5gTBwtsTnotaRm7r4maJ-23" value="&lt;strong style=&quot;font-size: 30px;&quot;&gt;Is the password correct?&lt;/strong&gt;" style="rhombus;whiteSpace=wrap;html=1;strokeWidth=2;fontSize=30;" parent="WIyWlLk6GJQsqaUBKTNV-1" vertex="1">
          <mxGeometry x="97.5" y="1137.5" width="210" height="155" as="geometry" />
        </mxCell>
        <mxCell id="5gTBwtsTnotaRm7r4maJ-28" value="" style="edgeStyle=orthogonalEdgeStyle;rounded=0;orthogonalLoop=1;jettySize=auto;html=1;fontSize=30;" parent="WIyWlLk6GJQsqaUBKTNV-1" source="5gTBwtsTnotaRm7r4maJ-25" target="5gTBwtsTnotaRm7r4maJ-27" edge="1">
          <mxGeometry relative="1" as="geometry" />
        </mxCell>
        <mxCell id="5gTBwtsTnotaRm7r4maJ-25" value="&lt;strong style=&quot;font-size: 30px;&quot;&gt;No&lt;/strong&gt;: &lt;strong style=&quot;font-size: 30px;&quot;&gt;Show error message &quot;Incorrect password&quot;&lt;/strong&gt;" style="shape=parallelogram;perimeter=parallelogramPerimeter;whiteSpace=wrap;html=1;fixedSize=1;strokeWidth=2;fontSize=30;" parent="WIyWlLk6GJQsqaUBKTNV-1" vertex="1">
          <mxGeometry x="430" y="1150" width="410" height="130" as="geometry" />
        </mxCell>
        <mxCell id="5gTBwtsTnotaRm7r4maJ-27" value="Clear password field" style="whiteSpace=wrap;html=1;strokeWidth=2;fontSize=30;" parent="WIyWlLk6GJQsqaUBKTNV-1" vertex="1">
          <mxGeometry x="970" y="1155" width="260" height="120" as="geometry" />
        </mxCell>
        <mxCell id="5gTBwtsTnotaRm7r4maJ-36" value="" style="edgeStyle=orthogonalEdgeStyle;rounded=0;orthogonalLoop=1;jettySize=auto;html=1;fontSize=30;" parent="WIyWlLk6GJQsqaUBKTNV-1" source="5gTBwtsTnotaRm7r4maJ-31" target="5gTBwtsTnotaRm7r4maJ-35" edge="1">
          <mxGeometry relative="1" as="geometry" />
        </mxCell>
        <mxCell id="5gTBwtsTnotaRm7r4maJ-31" value="&lt;strong style=&quot;font-size: 30px;&quot;&gt;Yes&lt;/strong&gt;: &lt;strong style=&quot;font-size: 30px;&quot;&gt;Continue&lt;/strong&gt;" style="whiteSpace=wrap;html=1;strokeWidth=2;fontSize=30;" parent="WIyWlLk6GJQsqaUBKTNV-1" vertex="1">
          <mxGeometry x="102.5" y="1370" width="205" height="60" as="geometry" />
        </mxCell>
        <mxCell id="5gTBwtsTnotaRm7r4maJ-33" value="&lt;font style=&quot;font-size: 30px;&quot;&gt;Store&lt;/font&gt;" style="strokeWidth=2;html=1;shape=mxgraph.flowchart.database;whiteSpace=wrap;" parent="WIyWlLk6GJQsqaUBKTNV-1" vertex="1">
          <mxGeometry x="670" y="132.5" width="120" height="105" as="geometry" />
        </mxCell>
        <mxCell id="5gTBwtsTnotaRm7r4maJ-38" value="" style="edgeStyle=orthogonalEdgeStyle;rounded=0;orthogonalLoop=1;jettySize=auto;html=1;fontSize=30;" parent="WIyWlLk6GJQsqaUBKTNV-1" source="5gTBwtsTnotaRm7r4maJ-35" target="5gTBwtsTnotaRm7r4maJ-37" edge="1">
          <mxGeometry relative="1" as="geometry" />
        </mxCell>
        <mxCell id="5gTBwtsTnotaRm7r4maJ-35" value="Show success message &quot;User {username} logged in&quot;" style="shape=parallelogram;perimeter=parallelogramPerimeter;whiteSpace=wrap;html=1;fixedSize=1;strokeWidth=2;fontSize=30;" parent="WIyWlLk6GJQsqaUBKTNV-1" vertex="1">
          <mxGeometry x="-10" y="1505" width="430" height="70" as="geometry" />
        </mxCell>
        <mxCell id="5gTBwtsTnotaRm7r4maJ-40" value="" style="edgeStyle=orthogonalEdgeStyle;rounded=0;orthogonalLoop=1;jettySize=auto;html=1;fontSize=30;" parent="WIyWlLk6GJQsqaUBKTNV-1" source="5gTBwtsTnotaRm7r4maJ-37" target="5gTBwtsTnotaRm7r4maJ-39" edge="1">
          <mxGeometry relative="1" as="geometry" />
        </mxCell>
        <mxCell id="5gTBwtsTnotaRm7r4maJ-37" value="Clear input fields" style="whiteSpace=wrap;html=1;strokeWidth=2;fontSize=30;" parent="WIyWlLk6GJQsqaUBKTNV-1" vertex="1">
          <mxGeometry x="72.5" y="1650" width="265" height="60" as="geometry" />
        </mxCell>
        <mxCell id="5gTBwtsTnotaRm7r4maJ-42" value="" style="edgeStyle=orthogonalEdgeStyle;rounded=0;orthogonalLoop=1;jettySize=auto;html=1;fontSize=30;" parent="WIyWlLk6GJQsqaUBKTNV-1" source="5gTBwtsTnotaRm7r4maJ-39" target="5gTBwtsTnotaRm7r4maJ-41" edge="1">
          <mxGeometry relative="1" as="geometry" />
        </mxCell>
        <mxCell id="5gTBwtsTnotaRm7r4maJ-39" value="Hide main window" style="whiteSpace=wrap;html=1;strokeWidth=2;fontSize=30;" parent="WIyWlLk6GJQsqaUBKTNV-1" vertex="1">
          <mxGeometry x="97.5" y="1800" width="215" height="60" as="geometry" />
        </mxCell>
        <mxCell id="5gTBwtsTnotaRm7r4maJ-44" value="" style="edgeStyle=orthogonalEdgeStyle;rounded=0;orthogonalLoop=1;jettySize=auto;html=1;fontSize=30;" parent="WIyWlLk6GJQsqaUBKTNV-1" source="5gTBwtsTnotaRm7r4maJ-41" target="5gTBwtsTnotaRm7r4maJ-43" edge="1">
          <mxGeometry relative="1" as="geometry" />
        </mxCell>
        <mxCell id="5gTBwtsTnotaRm7r4maJ-41" value="Create new window &lt;code style=&quot;font-size: 30px;&quot;&gt;biller&lt;/code&gt;" style="rounded=1;whiteSpace=wrap;html=1;strokeWidth=2;fontSize=30;" parent="WIyWlLk6GJQsqaUBKTNV-1" vertex="1">
          <mxGeometry x="48.75" y="1940" width="312.5" height="60" as="geometry" />
        </mxCell>
        <mxCell id="5gTBwtsTnotaRm7r4maJ-46" value="" style="edgeStyle=orthogonalEdgeStyle;rounded=0;orthogonalLoop=1;jettySize=auto;html=1;fontSize=30;" parent="WIyWlLk6GJQsqaUBKTNV-1" source="5gTBwtsTnotaRm7r4maJ-43" target="5gTBwtsTnotaRm7r4maJ-45" edge="1">
          <mxGeometry relative="1" as="geometry" />
        </mxCell>
        <mxCell id="5gTBwtsTnotaRm7r4maJ-43" value="Initialize &lt;code style=&quot;font-size: 30px;&quot;&gt;page2&lt;/code&gt;" style="whiteSpace=wrap;html=1;rounded=1;strokeWidth=2;fontSize=30;" parent="WIyWlLk6GJQsqaUBKTNV-1" vertex="1">
          <mxGeometry x="82.5" y="2080" width="245" height="60" as="geometry" />
        </mxCell>
        <mxCell id="5gTBwtsTnotaRm7r4maJ-48" value="" style="edgeStyle=orthogonalEdgeStyle;rounded=0;orthogonalLoop=1;jettySize=auto;html=1;fontSize=30;" parent="WIyWlLk6GJQsqaUBKTNV-1" source="5gTBwtsTnotaRm7r4maJ-45" target="5gTBwtsTnotaRm7r4maJ-47" edge="1">
          <mxGeometry relative="1" as="geometry" />
        </mxCell>
        <mxCell id="5gTBwtsTnotaRm7r4maJ-45" value="Execute &lt;code style=&quot;font-size: 30px;&quot;&gt;page2.time()&lt;/code&gt;" style="whiteSpace=wrap;html=1;rounded=1;strokeWidth=2;fontSize=30;" parent="WIyWlLk6GJQsqaUBKTNV-1" vertex="1">
          <mxGeometry x="67.5" y="2220" width="275" height="60" as="geometry" />
        </mxCell>
        <mxCell id="5gTBwtsTnotaRm7r4maJ-50" value="" style="edgeStyle=orthogonalEdgeStyle;rounded=0;orthogonalLoop=1;jettySize=auto;html=1;fontSize=30;" parent="WIyWlLk6GJQsqaUBKTNV-1" source="5gTBwtsTnotaRm7r4maJ-47" target="5gTBwtsTnotaRm7r4maJ-49" edge="1">
          <mxGeometry relative="1" as="geometry" />
        </mxCell>
        <mxCell id="5gTBwtsTnotaRm7r4maJ-47" value="&lt;strong style=&quot;font-size: 30px;&quot;&gt;Set window close protocol&lt;/strong&gt;" style="rounded=1;whiteSpace=wrap;html=1;strokeWidth=2;fontSize=30;" parent="WIyWlLk6GJQsqaUBKTNV-1" vertex="1">
          <mxGeometry x="62.5" y="2360" width="285" height="60" as="geometry" />
        </mxCell>
        <mxCell id="T8Z1pqLpK_Mi19yQJQGO-0" value="" style="edgeStyle=orthogonalEdgeStyle;rounded=0;orthogonalLoop=1;jettySize=auto;html=1;fontSize=30;" edge="1" parent="WIyWlLk6GJQsqaUBKTNV-1" source="5gTBwtsTnotaRm7r4maJ-49" target="5gTBwtsTnotaRm7r4maJ-15">
          <mxGeometry relative="1" as="geometry" />
        </mxCell>
        <mxCell id="5gTBwtsTnotaRm7r4maJ-49" value="Start main loop of &lt;code style=&quot;font-size: 30px;&quot;&gt;biller&lt;/code&gt;" style="whiteSpace=wrap;html=1;rounded=1;strokeWidth=2;fontSize=30;" parent="WIyWlLk6GJQsqaUBKTNV-1" vertex="1">
          <mxGeometry x="72.5" y="2500" width="265" height="100" as="geometry" />
        </mxCell>
      </root>
    </mxGraphModel>
  </diagram>
</mxfile>
